<svg id="Layer_1" xmlns="http://www.w3.org/2000/svg" viewBox="0 0 384 384"><path fill="none" stroke="#000000" stroke-width="16" stroke-miterlimit="10" d="M212,216c7.7,0,15.1-3.1,20.5-8.5c0.9-0.9,1.5-1.5,1.9-1.9c3.6-3.6,8.5-5.6,13.6-5.6h0c5.1,0,10,2,13.7,5.7l20.7,20.7c3.6,3.6,5.7,8.5,5.7,13.7v0c0,5.1-2,10-5.7,13.7l-6.6,6.6c-7.5,7.5-17.7,11.7-28.3,11.7H240c-70.7,0-128-57.3-128-128v-7.4c0-10.6,4.2-20.8,11.7-28.3l6.6-6.6C134,98,138.9,96,144,96h0c5.1,0,10,2,13.7,5.7l20.7,20.7c3.6,3.6,5.7,8.5,5.7,13.7v0c0,5.1-2,10-5.7,13.7l-1.9,1.9c-5.4,5.4-8.5,12.8-8.5,20.5v0c0,7.7,3.1,15,8.5,20.5l15,15C196.9,212.9,204.3,216,212,216L212,216z"/><path fill="none" stroke="#000000" stroke-width="16" stroke-miterlimit="10" d="M276,260c0,0,34.3,34.3,36.9,36.9C283.5,330.6,240.3,352,192,352c-88.4,0-160-71.6-160-160S103.6,32,192,32s160,71.6,160,160c0,19-3.3,37.2-9.4,54.1"/></svg>
